# AST/ASF file generated using VICON BodyLanguage
# -----------------------------------------------
:version 1.10
:name VICON
:units
  mass 1.0
  length 0.45
  angle deg
:documentation
   .ast/.asf automatically generated from VICON data using
   VICON BodyBuilder and BodyLanguage model FoxedUp or BRILLIANT.MOD
:root
   order TX TY TZ RX RY RZ
   axis XYZ
   position 0 0 0  
   orientation 0 0 0 
:bonedata
  begin
     id 1 
     name lhipjoint
     direction 0.734343 -0.627749 0.258209 
     length 2.5437 
     axis 0 0 0  XYZ
  end
  begin
     id 2 
     name lfemur
     direction 0.34202 -0.939693 0  
     length 6.7391  
     axis 0 0 20  XYZ
    dof rx ry rz
    limits (-160.0 20.0)
           (-70.0 70.0)
           (-60.0 70.0)
  end
  begin
     id 3 
     name ltibia
     direction 0.34202 -0.939693 0   
     length 7.21536   
     axis 0 0 20   XYZ
    dof rx
    limits (-10.0 170.0)
  end
  begin
     id 4 
     name lfoot
     direction 0.0489572 -0.134509 0.989702   
     length 1.61313   
     axis -90 7.62852e-016 20   XYZ
    dof rx rz
    limits (-45.0 90.0)
           (-70.0 20.0)
  end
  begin
     id 5 
     name ltoes
     direction 1.53451e-011 -4.21692e-011 1   
     length 0.823104   
     axis -90 7.62852e-016 20   XYZ
    dof rx
    limits (-90.0 20.0)
  end
  begin
     id 6 
     name rhipjoint
     direction -0.746398 -0.615468 0.253157   
     length 2.59446  
     axis 0 0 0  XYZ 
  end
  begin
     id 7 
     name rfemur
     direction -0.34202 -0.939693 0   
     length 6.7075   
     axis 0 0 -20   XYZ
    dof rx ry rz
    limits (-160.0 20.0)
           (-70.0 70.0)
           (-70.0 60.0)
  end
  begin
     id 8 
     name rtibia
     direction -0.34202 -0.939693 0   
     length 7.27262   
     axis 0 0 -20   XYZ
    dof rx
    limits (-10.0 170.0)
 end
 begin
     id 9 
     name rfoot
     direction -0.0455203 -0.125066 0.991104   
     length 1.91095  
     axis -90 -7.62852e-016 -20   XYZ
    dof rx rz
    limits (-45.0 90.0)
           (-20.0 70.0)
  end
  begin
     id 10 
     name rtoes
     direction -1.53601e-011 -4.21913e-011 1   
     length 0.969037   
     axis -90 -7.62852e-016 -20   XYZ
    dof rx
    limits (-90.0 20.0)
  end
  begin
     id 11 
     name lowerback
     direction 0.0181546 0.999122 -0.0377542   
     length 1.99916   
     axis 0 0 0   XYZ
    dof rx ry rz
    limits (-20.0 45.0)
           (-30.0 30.0)
           (-30.0 30.0)
  end
  begin
     id 12 
     name upperback
     direction 0.0203486 0.99589 0.0882534   
     length 1.951   
     axis 0 0 0   XYZ
    dof rx ry rz
    limits (-20.0 45.0)
           (-30.0 30.0)
           (-30.0 30.0)
  end
  begin
     id 13 
     name thorax
     direction 0.0131685 0.994241 0.106355   
     length 1.97461   
     axis 0 0 0   XYZ
    dof rx ry rz
    limits (-20.0 45.0)
           (-30.0 30.0)
           (-30.0 30.0)
  end
  begin
     id 14 
     name lowerneck
     direction -0.0281395 0.999325 0.023617   
     length 1.7959   
     axis 0 0 0   XYZ
    dof rx ry rz
    limits (-20.0 45.0)
           (-30.0 30.0)
           (-30.0 30.0)
  end
  begin
     id 15 
     name upperneck
     direction 0.0288721 0.991984 -0.123019   
     length 1.79917   
     axis 0 0 0   XYZ
    dof rx ry rz
    limits (-20.0 45.0)
           (-30.0 30.0)
           (-30.0 30.0)
  end
  begin
     id 16
     name head
     direction 0.0133797 0.998944 -0.0439492  
     length 1.80902  
     axis 0 0 0   XYZ
    dof rx ry rz
    limits (-20.0 45.0)
           (-30.0 30.0)
           (-30.0 30.0)
  end
  begin
     id 17 
     name lclavicle
     direction 0.919195 0.377107 0.113449  
     length 3.17815  
     axis 0 0 0   XYZ
    dof ry rz
    limits (-20.0 10.0)
           (0.0 20.0)
  end
  begin
     id 18 
     name lhumerus
     direction 1 -4.48959e-011 2.13129e-027   
     length 4.84137   
     axis 180 -30 -90   XYZ
    dof rx ry rz
    limits (-60.0 90.0)
           (-90.0 90.0)
           (-90.0 90.0)
  end
  begin
     id 19
     name lradius
     direction 1 -4.48957e-011 -6.30627e-028   
     length 3.2452   
     axis 180 -30 -90   XYZ
    dof rx
    limits (-10.0 170.0)
  end
  begin
     id 20
     name lwrist
     direction 1 -4.4901e-011 9.13299e-027   
     length 1.6226   
     axis -6.84618e-015 90 90   XYZ
    dof ry
    limits (-180.0 0.0)
 end
  begin
     id 21 
     name lhand
     direction 1 -4.48816e-011 1.82293e-026   
     length 0.521221   
     axis -1.16502e-014 90 90   XYZ
    dof rx rz
    limits (-90.0 90.0)
           (-45.0 45.0)
  end
  begin
     id 22 
     name lfingers
     direction 1 -4.49108e-011 3.65687e-026   
     length 0.420221   
     axis -2.33008e-014 90 90   XYZ
    dof rx
    limits (0.0 90.0)
  end
  begin
     id 23
     name lthumb
     direction 0.707107 -6.34943e-011 0.707107   
     length 0.603356   
     axis -90 45 5.69224e-014   XYZ
    dof rx rz
    limits (-45.0 45.0)
           (-45.0 45.0)
  end
  begin
     id 24 
     name rclavicle
     direction -0.90847 0.38596 0.160368   
     length 3.12973  
     axis 0 0 0   XYZ 
    dof ry rz
    limits (-10.0 20.0)
           (-20.0 0.0)
  end
  begin
     id 25 
     name rhumerus
     direction -1 -4.48974e-011 4.47268e-028  
     length 4.72284   
     axis 180 30 90   XYZ
    dof rx ry rz
    limits (-90.0 60.0)
           (-90.0 90.0)
           (-90.0 90.0)
  end
  begin
     id 26 
     name rradius
     direction -1 -4.48969e-011 3.43203e-027   
     length 3.23459   
     axis 180 30 90   XYZ
    dof rx
    limits (-10.0 170.0)
  end
  begin
     id 27 
     name rwrist
     direction -1 -4.48969e-011 9.12911e-027   
     length 1.6173   
     axis -6.84618e-015 -90 -90   XYZ
    dof ry
    limits (-180.0 0.0)
  end
  begin
     id 28
     name rhand
     direction -1 -4.49194e-011 1.83006e-026   
     length 0.307416   
     axis -1.16502e-014 -90 -90   XYZ
    dof rx rz
    limits (-90.0 90.0)
           (-45.0 45.0)
  end
  begin
     id 29
     name rfingers
     direction -1 -4.48423e-011 3.63103e-026   
     length 0.247847   
     axis -2.33008e-014 -90 -90   XYZ
    dof rx
    limits (0.0 90.0)
  end
  begin
     id 30
     name rthumb
     direction -0.707107 -6.34802e-011 0.707107   
     length 0.35586   
     axis -90 -45 -5.69224e-014   XYZ
    dof rx rz
    limits (-45.0 45.0)
           (-45.0 45.0)
  end
:hierarchy
  begin
    root lhipjoint rhipjoint lowerback
    lhipjoint lfemur
    lfemur ltibia
    ltibia lfoot
    lfoot ltoes
    rhipjoint rfemur
    rfemur rtibia
    rtibia rfoot
    rfoot rtoes
    lowerback upperback
    upperback thorax
    thorax lowerneck lclavicle rclavicle
    lowerneck upperneck
    upperneck head
    lclavicle lhumerus
    lhumerus lradius
    lradius lwrist
    lwrist lhand lthumb
    lhand lfingers
    rclavicle rhumerus
    rhumerus rradius
    rradius rwrist
    rwrist rhand rthumb
    rhand rfingers
  end

#!OML:ASF H:\Terrain\Patient Classification 1\Animal1\Tuesday\Animal1.ASF
:FULLY-SPECIFIED
:DEGREES
577
root 14.624 16.3696 -18.4371 6.71776 -24.9575 1.816
lowerback -1.75566 0.625214 1.3432
upperback -9.29927 0.831405 0.421875
thorax -8.76909 0.29003 -0.347664
lowerneck -2.98905 1.24517 -4.94368
upperneck 17.3876 0.32362 10.7089
head 5.64666 0.539945 4.24106
rclavicle -8.24956e-015 -1.39149e-014
rhumerus 1.99992 -0.108875 6.6101
rradius 24.2533
rwrist -26.317
rhand -6.31043 1.23036
rfingers 7.12502
rthumb 19.5339 -27.8084
lclavicle -8.24956e-015 -1.39149e-014
lhumerus -4.37795 18.3692 9.94356
lradius 21.0216
lwrist -31.1587
lhand 13.5947 41.6158
lfingers 7.12502
lthumb 38.5273 67.2696
rfemur 2.70805 17.5481 20.884
rtibia 20.2473
rfoot -9.42988 -24.6162
rtoes 4.84891
lfemur -23.5009 -17.4332 -17.2307
ltibia 17.7654
lfoot -5.83163 12.0988
ltoes -14.7753
578
root 14.6459 16.3827 -18.3577 6.6272 -25.1381 2.159
lowerback -1.84666 0.96411 1.13995
upperback -9.12571 1.24541 -0.0998096
thorax -8.50843 0.490693 -0.805311
lowerneck -3.73511 0.846729 -3.84409
upperneck 17.2077 -0.261585 10.484
head 5.77831 0.327135 3.95213
rclavicle -4.19436e-014 -7.55382e-015
rhumerus 0.868613 -1.14404 6.41501
rradius 24.0536
rwrist -25.6315
rhand -5.71604 1.02411
rfingers 7.12502
rthumb 20.1053 -27.9556
lclavicle -4.19436e-014 -7.55382e-015
lhumerus -2.93416 19.0165 10.3415
lradius 20.8479
lwrist -31.6826
lhand 14.236 41.6077
lfingers 7.12502
lthumb 39.132 67.0898
rfemur 2.1199 16.7975 20.1603
rtibia 21.42
rfoot -8.67522 -23.8619
rtoes 3.49336
lfemur -23.0982 -17.5861 -17.824
ltibia 17.4422
lfoot -5.59982 12.3105
ltoes -15.7082
579
root 14.6681 16.3946 -18.282 6.58273 -25.2557 2.08054
lowerback -1.79431 0.820602 1.19414
upperback -9.23706 1.06945 0.140181
thorax -8.67017 0.407514 -0.574565
lowerneck -3.14624 1.06289 -4.18739
upperneck 16.841 0.0894966 10.4801
head 5.53142 0.454197 4.01438
rclavicle 3.74709e-014 -3.57812e-015
rhumerus 1.46243 -0.54312 6.46453
rradius 24.2054
rwrist -26.0838
rhand -5.65455 0.560564
rfingers 7.12502
rthumb 20.1644 -28.4129
lclavicle 3.74709e-014 -3.57812e-015
lhumerus -3.85077 18.6433 9.98763
lradius 21.0235
lwrist -31.5959
lhand 14.5855 42.4204
lfingers 7.12502
lthumb 39.4614 67.8067
rfemur 1.55693 16.0487 19.9412
rtibia 22.7643
rfoot -7.15907 -23.2522
rtoes 0.72715
lfemur -22.543 -17.6141 -18.0247
ltibia 17.028
lfoot -5.65393 12.2736
ltoes -13.9887
580
root 14.692 16.4126 -18.2119 6.62917 -25.3717 1.95921
lowerback -1.77563 0.633996 1.17333
upperback -9.38293 0.846338 0.57967
thorax -8.85472 0.315939 -0.0870235
lowerneck -2.40424 1.37777 -4.94215
upperneck 16.4373 0.590105 10.5616
head 5.23041 0.632354 4.17631
rclavicle -4.96962e-015 3.18055e-015
rhumerus 2.25788 0.283434 6.75855
rradius 24.4839
rwrist -26.7676
rhand -5.86787 0.482731
rfingers 7.12502
rthumb 19.9594 -28.5122
lclavicle -4.96962e-015 3.18055e-015
lhumerus -5.05131 18.2518 9.71549
lradius 21.1132
lwrist -31.4663
lhand 14.1701 43.632
lfingers 7.12502
lthumb 39.0699 69.132
rfemur 0.77512 15.2759 19.7317
rtibia 24.1725
rfoot -6.06885 -22.5056
rtoes -0.146621
lfemur -22.1115 -17.5282 -18.1727
ltibia 16.6667
lfoot -5.52925 12.2047
ltoes -13.5848
581
root 14.7136 16.4266 -18.14 6.58345 -25.4603 2.22028
lowerback -1.99307 0.503297 0.875456
upperback -9.3957 0.665624 0.725917
thorax -8.74747 0.256427 0.245879
lowerneck -1.87914 1.57165 -5.31616
upperneck 15.8531 0.898962 10.6744
head 4.92978 0.746887 4.26932
rclavicle 5.14852e-014 3.4191e-014
rhumerus 2.77142 0.243122 6.75901
rradius 24.4385
rwrist -26.6668
rhand -5.72657 0.752632
rfingers 7.12502
rthumb 20.0952 -28.2281
lclavicle 5.14852e-014 3.4191e-014
lhumerus -5.71408 17.9572 9.41059
lradius 21.1345
lwrist -31.146
lhand 14.1015 43.5543
lfingers 7.12502
lthumb 39.0053 69.0728
rfemur -0.0671851 14.3985 19.0811
rtibia 25.5917
rfoot -5.88781 -21.6356
rtoes 0.746361
lfemur -21.8124 -17.6641 -18.6536
ltibia 16.4512
lfoot -5.4382 12.3195
ltoes -14.0198
582
root 14.7364 16.4287 -18.0658 6.63918 -25.5057 2.24613
lowerback -2.21633 0.489798 0.899614
upperback -9.35227 0.644129 0.730146
thorax -8.56802 0.244675 0.239507
lowerneck -1.6873 1.557 -5.29502
upperneck 15.3376 0.911871 10.677
head 4.73873 0.742873 4.2528
rclavicle 3.07122e-014 1.27222e-014
rhumerus 2.89995 -0.112376 6.65785
rradius 24.2775
rwrist -26.2853
rhand -5.59903 0.868926
rfingers 7.12502
rthumb 20.2178 -28.0989
lclavicle 3.07122e-014 1.27222e-014
lhumerus -5.91484 17.0044 9.20097
lradius 21.2999
lwrist -30.2528
lhand 14.3892 43.3688
lfingers 7.12502
lthumb 39.2764 68.809
rfemur -0.833499 13.4963 18.6404
rtibia 27.0136
rfoot -6.13052 -20.7399
rtoes 2.66926
lfemur -21.5724 -18.0057 -18.8542
ltibia 16.2862
lfoot -5.42153 12.4667
ltoes -13.4533
583
root 14.7613 16.432 -17.9986 6.79511 -25.5671 1.99477
lowerback -2.2229 0.49398 1.11415
upperback -9.37869 0.662495 0.839921
thorax -8.59306 0.241794 0.234714
lowerneck -1.64818 1.53105 -5.32538
upperneck 15.1423 0.898794 10.6332
head 4.67407 0.728782 4.23871
rclavicle 9.91935e-014 4.29375e-014
rhumerus 3.01825 -0.313873 6.60211
rradius 24.281
rwrist -26.107
rhand -5.73851 0.740864
rfingers 7.12502
rthumb 20.0837 -28.2411
lclavicle 9.91935e-014 4.29375e-014
lhumerus -6.1068 15.9446 9.03021
lradius 21.3636
lwrist -29.5356
lhand 14.4337 43.8734
lfingers 7.12502
lthumb 39.3183 69.3015
rfemur -1.57917 12.6291 18.5201
rtibia 28.3938
rfoot -5.79475 -19.6226
rtoes 2.84235
lfemur -21.3763 -18.0853 -18.8207
ltibia 16.1706
lfoot -5.51661 12.4062
ltoes -12.3821
584
root 14.782 16.4369 -17.9351 6.73676 -25.6855 2.01282
lowerback -2.09194 0.520025 1.02982
upperback -9.36921 0.698269 0.846911
thorax -8.66021 0.26622 0.286319
lowerneck -1.61087 1.47061 -5.38197
upperneck 14.9043 0.827842 10.7038
head 4.60003 0.690653 4.26234
rclavicle -7.49418e-014 -3.65764e-014
rhumerus 2.96946 -0.845683 6.43914
rradius 24.2432
rwrist -25.4848
rhand -5.86466 0.742283
rfingers 7.12502
rthumb 19.9625 -28.2524
lclavicle -7.49418e-014 -3.65764e-014
lhumerus -6.02154 16.0745 8.9899
lradius 21.285
lwrist -29.8655
lhand 14.6124 43.6481
lfingers 7.12502
lthumb 39.4867 69.0269
rfemur -2.2612 11.8029 18.1848
rtibia 29.7556
rfoot -5.02158 -18.3864
rtoes 2.42856
lfemur -21.0848 -17.866 -19.1533
ltibia 16.1489
lfoot -5.69758 12.241
ltoes -12.236
585
root 14.8013 16.4383 -17.8724 6.6285 -25.7601 2.17837
lowerback -2.02834 0.545062 0.775963
upperback -9.32105 0.724295 0.822831
thorax -8.64646 0.298128 0.400579
lowerneck -1.7903 1.37204 -5.37137
upperneck 14.878 0.693779 10.7521
head 4.63381 0.632581 4.27218
rclavicle 1.60022e-014 2.06736e-014
rhumerus 2.83772 -0.923957 6.4945
rradius 24.2034
rwrist -25.2502
rhand -5.94131 0.697884
rfingers 7.12502
rthumb 19.8888 -28.3044
lclavicle 1.60022e-014 2.06736e-014
lhumerus -5.78322 17.0048 9.15229
lradius 21.2558
lwrist -30.7699
lhand 14.9314 42.8523
lfingers 7.12502
lthumb 39.7871 68.1422
rfemur -3.02615 10.9658 17.714
rtibia 31.2172
rfoot -3.97327 -17.4564
rtoes 2.98104
lfemur -20.7922 -17.8874 -19.5579
ltibia 16.0323
lfoot -5.82108 12.2486
ltoes -11.2435
586
root 14.8212 16.4426 -17.8119 6.61208 -25.8091 2.1932
lowerback -2.01183 0.51075 0.634715
upperback -9.30134 0.680863 0.924021
thorax -8.63734 0.292252 0.588402
lowerneck -2.04854 1.37438 -5.44567
upperneck 15.1074 0.689019 10.7783
head 4.74741 0.637822 4.3009
rclavicle -5.1684e-015 8.74653e-015
rhumerus 2.97474 -0.47277 6.66674
rradius 24.2571
rwrist -25.7241
rhand -6.09524 0.440247
rfingers 7.12502
rthumb 19.7408 -28.5773
lclavicle -5.1684e-015 8.74653e-015
lhumerus -5.86985 16.983 9.16845
lradius 21.3178
lwrist -30.6865
lhand 15.4012 41.9641
lfingers 7.12502
lthumb 40.2291 67.1206
rfemur -3.86095 10.2411 17.4284
rtibia 32.7689
rfoot -2.78262 -16.8876
rtoes 2.52388
lfemur -20.4909 -18.1658 -19.7293
ltibia 15.7876
lfoot -5.9523 12.4763
ltoes -9.44311
587
root 14.8402 16.4465 -17.7524 6.47819 -25.8909 2.37048
lowerback -1.92591 0.463118 0.360843
upperback -9.30136 0.613912 0.990457
thorax -8.69133 0.28325 0.814663
lowerneck -2.07844 1.4363 -5.65476
upperneck 15.068 0.77116 10.9404
head 4.72969 0.676331 4.39083
rclavicle -5.62561e-014 -3.4191e-014
rhumerus 3.177 -0.37105 6.70009
rradius 24.2508
rwrist -25.8386
rhand -6.22098 0.473204
rfingers 7.12502
rthumb 19.6199 -28.5568
lclavicle -5.62561e-014 -3.4191e-014
lhumerus -6.02126 16.7234 9.07558
lradius 21.3534
lwrist -30.5081
lhand 15.7994 41.965
lfingers 7.12502
lthumb 40.6036 67.0061
rfemur -4.6363 9.52986 16.9948
rtibia 34.3335
rfoot -1.69273 -16.3888
rtoes 3.05938
lfemur -20.1317 -18.3433 -20.124
ltibia 15.6091
lfoot -5.96634 12.7372
ltoes -8.97415
